<?xml version="1.0" standalone="no"?>
<!DOCTYPE svg PUBLIC "-//W3C//DTD SVG 1.1//EN" "http://www.w3.org/Graphics/SVG/1.1/DTD/svg11.dtd" >
<svg xmlns="http://www.w3.org/2000/svg">
<metadata>
This is a custom SVG webfont generated by Font Squirrel.
Copyright   : 2002  by heinrich lischka  wwwfontboutiquede
</metadata>
<defs>
<font id="webfontQdBdNzAl" horiz-adv-x="983" >
<font-face units-per-em="2048" ascent="1638" descent="-410" />
<missing-glyph horiz-adv-x="923" />
<glyph unicode=" "  horiz-adv-x="923" />
<glyph unicode="&#x09;" horiz-adv-x="923" />
<glyph unicode="&#xa0;" horiz-adv-x="923" />
<glyph unicode="!" horiz-adv-x="348" d="M123 41q0 61 61 61t62 -61q0 -61 -62 -61q-61 0 -61 61zM123 1393h123l-21 -1086h-82z" />
<glyph unicode="&#x22;" horiz-adv-x="540" d="M147 1364q-4 45 7 61q18 31 47 31q31 0 45 -33q10 -18 6 -59l-16 -193q0 -8 -7 -28q-20 -41 -51 -10q-14 12 -16 38zM332 1364q-4 45 6 61q18 31 47 31q31 0 45 -33q10 -18 6 -59l-16 -193q0 -8 -6 -28q-20 -41 -52 -10q-14 12 -16 38z" />
<glyph unicode="#" horiz-adv-x="1150" d="M143 389l13 82h141l65 451h-143l10 82h144l55 389h82l-55 -389h368l51 368h82l-51 -368h144l-11 -82h-145l-64 -451h146l-12 -82h-144l-55 -389h-82l55 389h-368l-56 -389h-82l56 389h-144zM379 471h369l63 451h-367z" />
<glyph unicode="$" horiz-adv-x="1146" d="M143 0v82l267 -10v645q-246 76 -246 368q0 106 70.5 192.5t175.5 117.5v121h82v-105q14 2 45 2t79 -4q61 -4 80 -4v111h82v-115l205 -8v-82l-205 8v-598q266 -70 266 -373q0 -123 -74.5 -221t-191.5 -133v-117h-82v103h-20q-61 0 -184 8v-111h-82v113zM246 1085 q0 -211 164 -282v506q-70 -27 -117 -88.5t-47 -135.5zM492 70q123 -8 184 -9h20v598l-204 37v-626zM492 776l204 -37v584q-16 0 -80 4q-51 4 -81 4q-29 0 -43 -2v-553zM778 80q84 33 134.5 106.5t50.5 161.5q0 221 -185 289v-557z" />
<glyph unicode="%" horiz-adv-x="1167" d="M143 -20l828 1433h94l-827 -1433h-95zM184 1044v164q0 78 54.5 131.5t130.5 53.5h41q78 0 131 -53.5t53 -131.5v-164q0 -76 -53.5 -130t-130.5 -54h-41q-76 0 -130.5 54t-54.5 130zM266 1044q0 -41 31 -71.5t72 -30.5h41q41 0 71.5 31t30.5 71v164q0 41 -30.5 72 t-71.5 31h-41q-41 0 -72 -31t-31 -72v-164zM614 184v164q0 78 54.5 131t130.5 53h41q78 0 131 -53t53 -131v-164q0 -76 -53 -130t-131 -54h-41q-76 0 -130.5 54t-54.5 130zM696 184q0 -41 31 -71.5t72 -30.5h41q41 0 71.5 30.5t30.5 71.5v164q0 41 -30.5 72t-71.5 31h-41 q-41 0 -72 -31t-31 -72v-164z" />
<glyph unicode="&#x26;" horiz-adv-x="1024" d="M143 287v307q0 172 142 264q-100 92 -101 248q0 123 84 215t205 92h19l348 -20v-82l-361 20q-88 0 -150.5 -67.5t-62.5 -157.5v-21q0 -123 107 -190q29 6 57 6h21l471 -20v-881h-21l-471 -20q-121 0 -204 93t-83 214zM225 287q0 -88 61.5 -157t149.5 -69h15l389 17v725 l-404 16q-88 0 -149.5 -68.5t-61.5 -156.5v-307z" />
<glyph unicode="'" horiz-adv-x="362" d="M147 1364q-4 45 7 61q18 31 47 31q31 0 45 -33q10 -18 6 -59l-16 -193q0 -8 -7 -28q-20 -41 -51 -10q-14 12 -16 38z" />
<glyph unicode="(" horiz-adv-x="555" d="M143 164v1065q0 123 60 209q68 98 186 98h21l184 -20v-82l-199 20q-86 0 -131 -72q-39 -61 -39 -153v-1065q0 -92 39 -152q45 -74 131 -73h15l184 20v-82l-184 -20h-21q-119 0 -186 98q-60 86 -60 209z" />
<glyph unicode=")" horiz-adv-x="550" d="M-20 -41l198 -20q86 0 131 73q39 59 39 152v1065q0 92 -39 153q-45 72 -131 72h-14l-184 -20v82l184 20h20q119 0 187 -98q59 -86 59 -209v-1065q0 -123 -59 -209q-68 -98 -187 -98h-20l-184 20v82z" />
<glyph unicode="*" horiz-adv-x="958" d="M178 963q0 70 244 122q-244 53 -244 123q0 39 45 39q70 0 226 -98q-98 156 -99 225q0 45 39 45q70 0 123 -243q53 244 123 243q39 0 39 -45q0 -70 -99 -225q156 98 226 98q45 0 45 -39q0 -70 -244 -123q244 -53 244 -122q0 -39 -45 -39q-70 0 -226 98q98 -156 99 -225 q0 -45 -39 -45q-70 0 -123 243q-53 -244 -123 -243q-39 0 -39 45q0 70 99 225q-156 -98 -226 -98q-45 0 -45 39z" />
<glyph unicode="+" horiz-adv-x="1003" d="M154 461v82h327v327h82v-327h328v-82h-328v-328h-82v328h-327z" />
<glyph unicode="," horiz-adv-x="368" d="M133 61q0 29 21.5 50.5t50.5 21.5t50 -21.5t21 -50.5q0 -14 -6 -30l-51 -101q-12 -23 -35 -22q-43 0 -43 41q0 8 4 18l19 35q-31 24 -31 59z" />
<glyph unicode="-" horiz-adv-x="1003" d="M143 451v102h758v-102h-758z" />
<glyph unicode="." horiz-adv-x="348" d="M113 61q0 29 21.5 50.5t49.5 21.5q29 0 50.5 -21.5t21.5 -50.5t-21.5 -50t-50.5 -21t-50 21t-21 50z" />
<glyph unicode="/" horiz-adv-x="1167" d="M143 -20l828 1433h94l-827 -1433h-95z" />
<glyph unicode="0" horiz-adv-x="1003" d="M143 287v819q0 127 90.5 217t217.5 90h143q127 0 217 -90t90 -217v-819q0 -127 -90 -217t-217 -90h-143q-127 0 -217.5 90t-90.5 217zM225 287q0 -94 65.5 -160t160.5 -66h143q94 0 159.5 66t65.5 160v819q0 94 -65.5 159.5t-159.5 65.5h-143q-94 0 -160 -65.5 t-66 -159.5v-819z" />
<glyph unicode="1" horiz-adv-x="737" d="M143 0v82h226v1024q0 92 -39 154q-45 72 -131 71h-15v82h21q119 0 186 -98q59 -86 60 -209v-1024h184v-82h-492z" />
<glyph unicode="2" horiz-adv-x="1064" d="M143 0v164q0 182 146 352q123 141 309 236q125 63 174 116q68 76 68 197q0 115 -75 190.5t-192 75.5q4 0 -153 -8l-236 -12v82l236 12q158 8 153 8q150 0 249.5 -99.5t99.5 -248.5q0 -168 -101 -262q-47 -47 -241 -154q-137 -76 -240 -203q-115 -143 -115 -282v-86 l488 -17q168 0 168 205h82v-20q0 -121 -60 -191q-66 -76 -184 -75h-23z" />
<glyph unicode="3" horiz-adv-x="1064" d="M143 0v82l410 -21q328 -16 328 328q0 307 -389 307h-164v82h102q389 0 389 287q0 164 -90 223q-76 51 -237 41l-328 -20v82l328 20q410 25 409 -346q0 -252 -205 -322q266 -74 267 -354q0 -207 -107.5 -313.5t-302.5 -95.5z" />
<glyph unicode="4" horiz-adv-x="1024" d="M143 348v82l330 963h90l-332 -967l383 -14v305h82v-307q143 8 144 102v41h82v-41q0 -172 -226 -184v-328h-82v330z" />
<glyph unicode="5" horiz-adv-x="1024" d="M143 0v82l369 -21h27q301 0 301 328v123q0 143 -66.5 204.5t-212.5 61.5q-12 0 -49 -2l-369 -20v637l717 20v-82l-635 -16v-473q375 18 336 18q360 0 361 -348v-123q0 -190 -95 -297q-98 -113 -284 -112h-31z" />
<glyph unicode="6" horiz-adv-x="1024" d="M143 287v798q0 125 86 226.5t209 101.5h13l430 -20v-82l-439 20q-90 0 -153.5 -76.5t-63.5 -169.5v-223q326 18 328 19q369 0 369 -369v-225q0 -127 -90.5 -217t-217.5 -90h-163q-127 0 -217.5 90t-90.5 217zM225 287q0 -94 66.5 -160t159.5 -66h163q92 0 159 66t67 160 v225q0 287 -289 287l-326 -19v-493z" />
<glyph unicode="7" horiz-adv-x="1003" d="M143 1126v21q0 119 82 192.5t203 73.5h23l450 -20v-82l-487 -1311h-92l268 717h-201v82h232l192 516l-379 16q-88 0 -148.5 -49t-60.5 -135v-21h-82z" />
<glyph unicode="8" horiz-adv-x="1044" d="M143 287v184q0 90 48.5 166t127.5 113q-135 92 -135 254v102q0 127 90.5 217t217.5 90h102q127 0 217 -90t90 -217v-102q0 -162 -135 -254q80 -37 128 -113t48 -166v-184q0 -127 -90 -217t-217 -90h-184q-127 0 -217.5 90t-90.5 217zM225 287q0 -94 65.5 -160t160.5 -66 h184q94 0 159.5 66t65.5 160v184q0 94 -65.5 159.5t-159.5 65.5h-184q-94 0 -160 -65.5t-66 -159.5v-184zM266 1004q0 -94 65.5 -160t160.5 -66h102q94 0 159.5 65.5t65.5 160.5v102q0 94 -65.5 159.5t-159.5 65.5h-102q-94 0 -160 -65.5t-66 -159.5v-102z" />
<glyph unicode="9" horiz-adv-x="1024" d="M143 881v225q0 127 90.5 217t217.5 90h163q127 0 217.5 -90t90.5 -217v-799q0 -125 -84 -223q-88 -104 -211 -104h-13l-430 20v82l439 -21q90 0 155 80q61 74 62 166v223q-326 -18 -328 -18q-369 0 -369 369zM225 881q0 -287 289 -287q61 0 164 6q125 8 162 10v496 q0 94 -66.5 159.5t-159.5 65.5h-163q-92 0 -159 -65.5t-67 -159.5v-225z" />
<glyph unicode=":" horiz-adv-x="368" d="M133 61q0 29 21.5 50.5t50.5 21.5t50 -21.5t21 -50.5t-21.5 -50t-49.5 -21q-29 0 -50.5 21t-21.5 50zM133 819q0 29 21.5 50.5t50.5 21.5t50 -21.5t21 -50.5t-21.5 -50t-49.5 -21q-29 0 -50.5 21t-21.5 50z" />
<glyph unicode=";" horiz-adv-x="368" d="M133 61q0 29 21.5 50.5t50.5 21.5t50 -21.5t21 -50.5q0 -14 -6 -30l-51 -101q-12 -23 -35 -22q-43 0 -43 41q0 8 4 18l19 35q-31 24 -31 59zM133 819q0 29 21.5 50.5t50.5 21.5t50 -21.5t21 -50.5t-21.5 -50t-49.5 -21q-29 0 -50.5 21t-21.5 50z" />
<glyph unicode="&#x3c;" horiz-adv-x="966" d="M143 539l371 370l57 -57l-270 -272h563v-82h-563l270 -271l-57 -59z" />
<glyph unicode="=" horiz-adv-x="1003" d="M143 287v82h758v-82h-758zM143 635v82h758v-82h-758z" />
<glyph unicode="&#x3e;" horiz-adv-x="966" d="M143 498v82h564l-273 272l60 57l370 -370l-370 -371l-60 59l273 271h-564z" />
<glyph unicode="?" d="M143 1044v62q0 127 90.5 217t217.5 90h143q127 0 207 -90t80 -217v-82q0 -133 -56 -209q-41 -55 -167 -137t-126 -227v-123h-81v123q0 193 196 315q82 51 117 107.5t35 150.5v82q0 94 -56.5 159.5t-148.5 65.5h-143q-94 0 -160 -65.5t-66 -159.5v-62h-82zM410 61 q0 35 24.5 58.5t57.5 23.5q35 0 58 -23.5t23 -58.5q0 -33 -23.5 -57t-57.5 -24q-33 0 -57.5 24t-24.5 57z" />
<glyph unicode="@" horiz-adv-x="1208" d="M143 41l21 819q4 125 88 216t205 91h14l635 -20v-1147l-444 -20q-125 0 -209 82.5t-84 203.5v348q0 125 89 206t218 81h123q137 0 225 -98v266l-563 16q-88 0 -150.5 -67.5t-64.5 -157.5l-21 -819q-2 -90 61.5 -157.5t153.5 -67.5h11l553 20v-82l-568 -20q-123 0 -209 92 t-84 215zM451 266q0 -88 61 -146.5t154 -58.5h10l348 17v516q0 94 -65.5 159.5t-159.5 65.5h-123q-94 0 -159.5 -65.5t-65.5 -159.5v-328z" />
<glyph unicode="A" horiz-adv-x="1187" d="M143 0v901q0 225 117 367q121 146 327 146q14 0 27 -1l471 -20v-1393h-81v614h-779v-614h-82zM225 696h779v615l-390 20q-14 1 -27 1q-167 0 -263 -118q-98 -117 -99 -313v-205z" />
<glyph unicode="B" horiz-adv-x="1167" d="M143 2v1391l398 18q24 1 46 1q415 0 414 -357q0 -240 -208 -310q131 -35 201.5 -131t70.5 -233q0 -207 -133 -313q-109 -89 -290 -89q-19 0 -38 1zM225 82l379 -19q17 -1 33 0q147 0 235 66q109 80 109 252q0 315 -397 315h-359v-614zM225 780h295q397 0 398 275 q0 166 -113 229q-76 44 -217 44q-23 0 -47 -1l-316 -14v-533z" />
<glyph unicode="C" horiz-adv-x="1187" d="M143 492v409q0 225 117 367q121 146 327 146q14 0 27 -1l471 -20v-82l-471 20q-11 1 -22 1q-170 0 -268 -118q-98 -117 -99 -313v-409q0 -197 99 -314q98 -117 268 -117h22l471 21v-82l-471 -20q-14 -1 -27 -1q-206 0 -327 146q-117 142 -117 367z" />
<glyph unicode="D" horiz-adv-x="1187" d="M143 0v1393l496 20q215 0 336 -153q111 -139 110 -359v-409q0 -219 -110 -359q-121 -154 -336 -153h-25zM225 78l410 -17q180 0 280 129q88 115 89 302v409q0 186 -89 301q-100 129 -280 129h-21l-389 -16v-1237z" />
<glyph unicode="E" horiz-adv-x="1146" d="M143 389q0 133 70 227.5t197 126.5q-100 35 -154 125q-51 84 -51 197q0 350 396 350q26 0 54 -2l369 -20v-82l-369 20q-25 1 -47 2q-321 0 -321 -268q0 -287 389 -287h184v-82h-246q-389 0 -389 -307q0 -168 107 -254q89 -74 233 -74h29l450 21v-82l-450 -20 q-14 -1 -29 -1q-179 0 -293 97q-129 110 -129 313z" />
<glyph unicode="F" horiz-adv-x="1064" d="M143 0v1065q0 350 397 350q26 0 54 -2l369 -20v-82l-369 20l-48 2q-321 0 -321 -268v-287h553v-82h-553v-696h-82z" />
<glyph unicode="G" horiz-adv-x="1208" d="M143 492v409q0 225 117 367q121 146 327 146q14 0 27 -1l471 -20v-82l-471 20q-11 1 -22 1q-170 0 -268 -118q-98 -117 -99 -313v-409q0 -197 99 -314q97 -118 263 -117h27l410 21v532h-287v82h369v-696l-492 -20q-14 -1 -27 -1q-206 0 -327 146q-117 142 -117 367z" />
<glyph unicode="H" horiz-adv-x="1167" d="M143 0v1393h82v-615h758v615h82v-1393h-82v696h-758v-696h-82z" />
<glyph unicode="I" horiz-adv-x="327" d="M143 0v1393h82v-1393h-82z" />
<glyph unicode="J" horiz-adv-x="716" d="M143 -20v81q188 0 291 121q98 115 98 310v901h82v-901q0 -223 -116 -363q-128 -149 -355 -149z" />
<glyph unicode="K" horiz-adv-x="1126" d="M143 0v1393h82v-635l279 18q141 10 209 125q41 70 192 492h86q-113 -330 -141 -398q-66 -160 -141 -223q299 -33 313 -315q2 -43 2 -457h-82v369q0 102 -10 147q-14 59 -60 111q-66 76 -210 75q-53 0 -136 -6l-301 -20v-676h-82z" />
<glyph unicode="L" horiz-adv-x="1167" d="M143 492v901h82v-901q0 -197 99 -314q98 -117 268 -117h22l451 21v-82l-451 -20q-14 -1 -27 -1q-206 0 -327 146q-117 142 -117 367z" />
<glyph unicode="M" horiz-adv-x="1761" d="M143 0v1393l410 20q13 1 26 1q241 0 322 -224q82 223 348 223q410 0 410 -512v-901h-82v901q0 205 -68 309q-78 121 -260 121q-180 0 -250 -121q-57 -98 -57 -309v-409h-82v409q0 215 -57 316q-66 115 -224 115q-13 0 -26 -1l-328 -20v-1311h-82z" />
<glyph unicode="N" horiz-adv-x="1187" d="M143 0v1393l471 20q14 1 28 1q206 0 327 -146q117 -141 116 -367v-901h-81v901q0 197 -99 313q-97 118 -263 118q-13 0 -28 -1l-389 -20v-1311h-82z" />
<glyph unicode="O" horiz-adv-x="1208" d="M143 492v409q0 227 124 369.5t347 142.5h21q223 0 350 -145q121 -139 121 -367v-409q0 -227 -121 -367q-127 -145 -350 -145h-21q-223 0 -350 145q-121 140 -121 367zM225 492q0 -193 97 -308q104 -123 292 -123h21q188 0 293 123q96 115 96 308v409q0 193 -96 307 q-104 123 -293 123h-21q-188 0 -292 -123q-96 -115 -97 -307v-409z" />
<glyph unicode="P" horiz-adv-x="1085" d="M143 0v1393l410 20q10 0 21 1q157 0 279 -119q130 -126 130 -312t-121 -313q-112 -118 -264 -118q-12 0 -25 1l-348 20v-573h-82zM225 655l348 -20q10 -1 21 -1q124 0 212 95q95 102 95 254q0 150 -104 253q-97 96 -224 96q-10 0 -20 -1l-328 -20v-656z" />
<glyph unicode="Q" horiz-adv-x="1208" d="M143 492v409q0 225 121 365q127 147 350 147h21q223 0 350 -147q121 -139 121 -365v-409q0 -217 -111 -355q-119 -147 -329 -157v-144h-82v144q-211 10 -330 157q-111 138 -111 355zM225 492q0 -182 88 -295q94 -125 271 -136v103h82v-103q176 10 272 136q86 113 86 295 v409q0 193 -96 307q-104 123 -293 123h-21q-188 0 -292 -123q-96 -115 -97 -307v-409z" />
<glyph unicode="R" horiz-adv-x="1146" d="M143 0v1393l410 20q10 0 21 1q157 0 279 -119q130 -126 130 -312q0 -150 -80 -264.5t-207 -149.5l348 -569h-96l-338 555q-18 -4 -37 -2l-348 20v-573h-82zM225 655l348 -20q10 -1 21 -1q124 0 212 95q95 102 95 254q0 150 -104 253q-97 96 -224 96q-10 0 -20 -1 l-328 -20v-656z" />
<glyph unicode="S" horiz-adv-x="1146" d="M143 0v82l533 -21q117 0 202 83t85 204q0 231 -207 297l-385 86q-207 82 -207 354q0 123 92 218q106 111 281 110h-1q0 -1 447 -20v-82l-448 20q-137 0 -220 -84q-70 -72 -69 -162q0 -233 207 -299l385 -84q207 -82 206 -354q0 -154 -109.5 -261t-258.5 -107h2 q-1 1 -535 20z" />
<glyph unicode="T" horiz-adv-x="1105" d="M143 1311v82h861v-82h-390v-1311h-82v1311h-389z" />
<glyph unicode="U" horiz-adv-x="1187" d="M143 492v901h82v-901q0 -197 99 -314q97 -118 263 -117h27l390 21v1311h81v-1393l-471 -20q-14 -1 -27 -1q-206 0 -327 146q-117 142 -117 367z" />
<glyph unicode="V" horiz-adv-x="1228" d="M143 1393h82l123 -901q35 -254 60 -308q55 -123 227 -123t227 123q25 53 60 308l122 901h82l-122 -901q-39 -279 -80 -361q-78 -152 -289 -151q-211 0 -289 151q-41 82 -80 361z" />
<glyph unicode="W" horiz-adv-x="1761" d="M143 492v901h82v-901q0 -205 68 -310q78 -121 260 -121q180 0 250 121q57 98 57 310v327h82v-327q0 -215 57 -316q66 -115 224 -115h26l328 21v1311h82v-1393l-410 -20q-13 -1 -25 -1q-241 0 -323 224q-82 -223 -348 -223q-410 0 -410 512z" />
<glyph unicode="X" horiz-adv-x="1167" d="M143 0l414 715l-393 678h94l346 -596l346 596h94l-393 -678l414 -715h-94l-367 633l-366 -633h-95z" />
<glyph unicode="Y" horiz-adv-x="1126" d="M143 1126v267h82v-267q0 -197 99 -313q97 -118 263 -117h27l287 17l41 680h82l-41 -758l-328 -19v-616h-82v616q-209 12 -323 160q-107 137 -107 350z" />
<glyph unicode="Z" horiz-adv-x="1228" d="M143 0v61l850 1252l-317 18q-90 6 -148 6q-154 0 -215 -43q-68 -45 -67 -168v-20h-82v20q0 170 100 236q86 55 281 55q53 0 131 -4l430 -20v-62l-2 -2l-850 -1249l360 -19q86 -4 142 -4q158 0 223 43t65 166v21h82v-21q0 -170 -102 -235q-84 -55 -283 -56q-51 0 -127 5z " />
<glyph unicode="[" horiz-adv-x="573" d="M143 -123v1639h410v-82h-328v-1475h328v-82h-410z" />
<glyph unicode="\" horiz-adv-x="1167" d="M143 1413h95l827 -1433h-94z" />
<glyph unicode="]" horiz-adv-x="567" d="M43 -41h328v1475h-328v82h410v-1639h-410v82z" />
<glyph unicode="_" horiz-adv-x="1167" d="M143 -20h922v-82h-922v82z" />
<glyph unicode="`" horiz-adv-x="722" d="M369 1210q0 25 18.5 43.5t42.5 18.5q23 0 47 -23l125 -110q18 -12 19 -33q0 -41 -41 -41q-14 0 -25 8l-145 80q-41 22 -41 57z" />
<glyph unicode="a" d="M143 287v348q0 127 90.5 217t217.5 90h122q127 0 217.5 -90t90.5 -217v-635l-445 -20q-123 0 -208 92t-85 215zM225 287q0 -90 62.5 -158t152.5 -68h11l348 17v557q0 94 -65.5 159.5t-160.5 65.5h-122q-94 0 -160 -65.5t-66 -159.5v-348z" />
<glyph unicode="b" d="M143 0v1393h82v-467l363 16q123 0 208 -92t85 -215v-348q0 -123 -85 -215t-208 -92h-15zM225 78l359 -17q90 0 152.5 68t62.5 158v348q0 90 -62.5 157.5t-152.5 67.5h-11l-348 -16v-766z" />
<glyph unicode="c" horiz-adv-x="942" d="M143 287v348q0 123 85 215t208 92h15l389 -20v-82l-400 20q-90 0 -152.5 -67.5t-62.5 -157.5v-348q0 -90 62.5 -158t152.5 -68h11l389 21v-82l-404 -20q-123 0 -208 92t-85 215z" />
<glyph unicode="d" d="M143 287v348q0 123 85 215t208 92h15l348 -16v467h82v-1393l-445 -20q-123 0 -208 92t-85 215zM225 287q0 -90 62.5 -158t152.5 -68h11l348 17v766l-359 16q-90 0 -152.5 -67.5t-62.5 -157.5v-348z" />
<glyph unicode="e" d="M143 287v348q0 127 90.5 217t217.5 90h122q127 0 217.5 -90t90.5 -217v-246h-656v-102q0 -90 62.5 -158t152.5 -68h11l389 21v-82l-404 -20q-123 0 -208 92t-85 215zM225 471h574v164q0 94 -65.5 159.5t-160.5 65.5h-122q-94 0 -160 -65.5t-66 -159.5v-164z" />
<glyph unicode="f" horiz-adv-x="839" d="M143 840v82h103v184q0 307 213 307h20l258 -20v-82l-272 20q-137 0 -137 -225v-184h368v-82h-368v-840h-82v840h-103z" />
<glyph unicode="g" d="M143 287v348q0 123 85 215t208 92h15l430 -20v-1045q0 -127 -90.5 -217t-217.5 -90h-102q-129 0 -218 81t-89 206v20h82v-20q0 -92 64.5 -148.5t160.5 -56.5h102q94 0 160 65.5t66 159.5v201q-88 -98 -226 -98h-122q-127 0 -217.5 90t-90.5 217zM225 287q0 -94 65.5 -160 t160.5 -66h122q94 0 160 66t66 160v557l-359 16q-90 0 -152.5 -67.5t-62.5 -157.5v-348z" />
<glyph unicode="h" horiz-adv-x="942" d="M143 0v1393h82v-467q289 16 328 16q121 0 204 -93t83 -214v-635h-82v635q0 88 -61.5 156.5t-149.5 68.5q-49 0 -322 -16v-844h-82z" />
<glyph unicode="i" horiz-adv-x="348" d="M123 1188q0 61 61 61t62 -61q0 -61 -62 -62q-61 1 -61 62zM143 0v922h82v-922h-82z" />
<glyph unicode="j" horiz-adv-x="614" d="M123 -344q49 -4 76 -4q88 0 149.5 68.5t61.5 156.5v1045h82v-1045q0 -121 -83 -214t-204 -93q-29 0 -82 4v82zM389 1188q0 25 18.5 43t43.5 18t43 -18.5t18 -42.5q0 -25 -18.5 -43.5t-42.5 -18.5q-25 0 -43.5 18.5t-18.5 43.5z" />
<glyph unicode="k" horiz-adv-x="942" d="M143 0v1393h82v-815q92 4 258 14q23 2 56 20q117 70 116 207v103h82v-103q0 -143 -106 -237q92 -29 150.5 -113t58.5 -182v-287h-82v287q0 90 -61.5 157.5t-149.5 67.5q-49 0 -322 -16v-496h-82z" />
<glyph unicode="l" horiz-adv-x="614" d="M143 287v1106h82v-1106q0 -90 62.5 -158t152.5 -68h11l61 5v-82l-61 -4h-15q-123 0 -208 92t-85 215z" />
<glyph unicode="m" horiz-adv-x="1556" d="M143 0v922l389 20h21q162 0 246 -154q90 154 266 154h82q127 0 217 -90t90 -217v-635h-82v635q0 94 -65.5 159.5t-159.5 65.5h-82q-94 0 -159.5 -65.5t-65.5 -159.5v-635h-82v635q0 90 -61.5 157.5t-149.5 67.5q-49 0 -322 -16v-844h-82z" />
<glyph unicode="n" d="M143 0v922l451 20q121 0 204 -93t83 -214v-635h-82v635q0 88 -61.5 156.5t-149.5 68.5h-15l-348 -16v-844h-82z" />
<glyph unicode="o" d="M143 307v307q0 129 91.5 228.5t216.5 99.5h122q125 0 216.5 -99.5t91.5 -228.5v-307q0 -129 -91.5 -228t-216.5 -99h-122q-125 0 -216.5 99t-91.5 228zM225 307q0 -96 66.5 -171t159.5 -75h122q92 0 159 75t67 171v307q0 96 -66.5 171t-159.5 75h-122q-92 0 -159 -74.5 t-67 -171.5v-307z" />
<glyph unicode="p" d="M143 -430v1352l445 20q123 0 208 -92t85 -215v-348q0 -123 -85 -215t-208 -92h-15l-348 16v-426h-82zM225 78l359 -17q90 0 152.5 68t62.5 158v348q0 90 -62.5 157.5t-152.5 67.5h-11l-348 -16v-766z" />
<glyph unicode="q" d="M143 287v348q0 123 85 215t208 92h15l430 -20v-1352h-82v426l-363 -16q-123 0 -208 92t-85 215zM225 287q0 -90 62.5 -158t152.5 -68h11l348 17v766l-359 16q-90 0 -152.5 -67.5t-62.5 -157.5v-348z" />
<glyph unicode="r" horiz-adv-x="819" d="M143 0v922l308 20h20q119 0 186 -98q59 -86 60 -209v-82h-82v82q0 92 -39 153q-45 72 -131 72q-27 0 -240 -16v-844h-82z" />
<glyph unicode="s" horiz-adv-x="860" d="M143 0v82l361 -21q74 0 123 47.5t49 124.5q0 145 -131 183l-248 53q-133 55 -133 248q0 94 59 155q68 70 189 70q8 0 305 -20v-82l-305 20q-166 0 -166 -143q0 -109 53 -154q43 -39 152 -49q141 -12 213 -63q94 -68 94 -218q0 -113 -75 -183t-179 -70q-13 0 -361 20z" />
<glyph unicode="t" horiz-adv-x="614" d="M143 287v1106h82v-471h267v-82h-267v-553q0 -88 61.5 -157t149.5 -69q27 0 76 5v-82q-53 -4 -82 -4q-121 0 -204 93t-83 214z" />
<glyph unicode="u" d="M143 287v635h82v-635q0 -88 61.5 -157t149.5 -69h15l348 17v844h82v-922l-451 -20q-121 0 -204 93t-83 214z" />
<glyph unicode="v" horiz-adv-x="1024" d="M143 928h82l82 -621q12 -94 72.5 -159.5t152.5 -65.5t152.5 65.5t73.5 159.5l82 621h82l-82 -621q-16 -129 -97 -215q-86 -92 -211 -92t-210 92q-80 86 -97 215z" />
<glyph unicode="w" horiz-adv-x="1556" d="M143 287v635h82v-635q0 -94 65.5 -160t160.5 -66h81q94 0 160 66t66 160v635h82v-635q0 -90 61.5 -158t149.5 -68q49 0 321 17v844h82v-922l-389 -20h-21q-162 0 -245 153q-90 -154 -267 -153h-81q-127 0 -217.5 90t-90.5 217z" />
<glyph unicode="x" horiz-adv-x="1105" d="M143 0l379 481l-332 441h103l280 -373l281 373h102l-331 -441l379 -481h-103l-328 414l-327 -414h-103z" />
<glyph unicode="y" d="M143 287v635h82v-635q0 -88 61.5 -157t149.5 -69h15l348 17v844h82v-1045q0 -127 -90.5 -217t-217.5 -90h-102q-127 0 -217 80t-90 207v20h82v-20q0 -94 69 -152q63 -53 156 -53h102q94 0 160 65.5t66 159.5v119l-369 -16q-121 0 -204 93t-83 214z" />
<glyph unicode="z" horiz-adv-x="1024" d="M143 0v82l656 762l-369 16q-21 1 -40 1q-73 0 -99 -13q-45 -25 -45 -111v-20h-82v20q0 121 69 168q54 38 164 38q16 0 33 -1l471 -20v-82l-653 -762l407 -17q21 -1 40 0q73 0 100 13q45 25 45 110v21h82v-21q0 -121 -70 -168q-54 -38 -164 -37q-16 0 -33 1z" />
<glyph unicode="{" horiz-adv-x="688" d="M143 655v82h31q78 0 129 52.5t51 128.5q0 14 -6 45l-61 307q-6 31 -6 55q0 104 74.5 178t176.5 74q37 0 185 -21v-81q-143 20 -178 20q-74 0 -125.5 -53t-51.5 -127q0 -14 7 -45l61 -307q6 -31 6 -48q0 -131 -121 -219q121 -88 121 -219q0 -16 -6 -47l-61 -307 q-6 -31 -7 -45q0 -74 51.5 -127t125.5 -53q-12 0 178 20v-82q-199 -20 -185 -20q-102 0 -176.5 73.5t-74.5 178.5q0 25 6 55l61 307q6 31 6 45q0 78 -51 129t-129 51h-31z" />
<glyph unicode="|" horiz-adv-x="327" d="M143 -123v1639h82v-1639h-82z" />
<glyph unicode="}" horiz-adv-x="653" d="M-37 -82q190 -20 178 -20q74 0 124 53t50 127q0 25 -4 45l-61 307q-6 31 -6 47q0 131 121 219q-121 88 -121 219q0 16 6 48l61 307q4 20 4 45q0 74 -50 127t-124 53q-35 0 -178 -20v81q150 20 182 21q104 0 179 -73.5t75 -178.5q0 -25 -6 -55l-61 -307q-6 -31 -6 -45 q0 -76 52 -128.5t128 -52.5h31v-82h-31q-76 0 -128 -51t-52 -129q0 -14 6 -45l61 -307q6 -31 6 -55q0 -104 -74.5 -178t-179.5 -74q16 0 -182 20v82z" />
<glyph unicode="~" horiz-adv-x="909" d="M233 520l62 55q53 -63 119 -63q35 0 94 40t117 40q100 0 182 -90l-62 -56q-55 63 -118 64q-35 0 -94.5 -40t-118.5 -40q-101 0 -181 90z" />
<glyph unicode="&#xa1;" horiz-adv-x="348" d="M123 0l20 1085h82l21 -1085h-123zM123 1352q0 61 61 61t62 -61q0 -61 -62 -62q-61 1 -61 62z" />
<glyph unicode="&#xa2;" horiz-adv-x="942" d="M143 287v348q0 121 83 214t204 93q41 0 64 -2v115h79v-119l267 -14v-82l-267 14v-786l267 14v-82l-267 -14v-119h-79v115q-23 -2 -64 -2q-121 0 -204 93t-83 214zM225 287q0 -90 61.5 -158t149.5 -68q8 0 29 2h29v795q-10 0 -29 2h-29q-88 0 -149.5 -67.5t-61.5 -157.5 v-348z" />
<glyph unicode="&#xa3;" horiz-adv-x="1044" d="M143 0v82l97 573h-76v82h88l55 326q31 178 88 254q76 98 238 98q2 0 309 -24v-82q-301 25 -307 24q-125 0 -180 -73q-41 -55 -66 -197l-55 -326h465v-82h-477l-97 -573h717v-82h-799z" />
<glyph unicode="&#xa4;" horiz-adv-x="1249" d="M143 532v82h123v164h-123v82h123v41q0 225 117 369q129 154 354 143l410 -20v-82l-410 20q-186 10 -291 -117q-98 -117 -98 -313v-41h451v-82h-451v-164h451v-82h-451v-40q0 -197 98 -314q104 -127 291 -117l410 21v-82l-410 -20q-225 -10 -354 143q-117 143 -117 369v40 h-123z" />
<glyph unicode="&#xa5;" horiz-adv-x="1126" d="M143 1126v267h82v-267q0 -197 99 -313q104 -127 290 -117l287 17l41 680h82l-41 -758l-328 -19v-84h287v-81h-287v-164h287v-82h-287v-205h-82v205h-286v82h286v164h-286v81h286v84q-209 12 -323 160q-107 137 -107 350z" />
<glyph unicode="&#xa7;" horiz-adv-x="868" d="M143 0v84l344 -21q74 0 125.5 47.5t51.5 127.5q0 104 -62 151q-43 33 -143 47h-4v2q-158 23 -209 56q-102 61 -103 233q0 145 123 203q-102 68 -102 225q0 115 75.5 186.5t182.5 71.5q33 0 283 -20v-84q-250 20 -283 20q-74 0 -124 -47t-50 -127q0 -104 59 -151 q43 -33 144 -48h4l2 -2q158 -23 209 -55q100 -61 100 -233q0 -145 -123 -203q102 -68 102 -225q0 -115 -75.5 -186.5t-182.5 -71.5q-12 0 -344 20zM227 727q0 -111 54 -156q45 -39 153 -49q6 -2 21 -2h61q168 0 168 146q0 111 -53 155q-45 39 -156 49q-6 2 -20 2h-60 q-168 0 -168 -145z" />
<glyph unicode="&#xa8;" horiz-adv-x="778" d="M133 1147q0 29 21.5 50.5t50.5 21.5t50 -21.5t21 -50.5t-21.5 -50.5t-49.5 -21.5q-29 0 -50.5 21.5t-21.5 50.5zM543 1147q0 29 21.5 50.5t49.5 21.5q29 0 50.5 -21.5t21.5 -50.5t-21.5 -50.5t-50.5 -21.5t-50 21.5t-21 50.5z" />
<glyph unicode="&#xa9;" d="M143 922v184q0 127 90.5 217t217.5 90h122q127 0 217.5 -90t90.5 -217v-184q0 -127 -90.5 -217.5t-217.5 -90.5h-122q-127 0 -217.5 90.5t-90.5 217.5zM225 922q0 -94 65.5 -160t160.5 -66h122q94 0 160 65.5t66 160.5v184q0 94 -65.5 159.5t-160.5 65.5h-122 q-94 0 -160 -65.5t-66 -159.5v-184zM322 926v176q0 63 46 111.5t109 43.5l193 -10v-76q-158 10 -197 11q-31 0 -54.5 -24.5t-23.5 -55.5v-176q0 -33 24.5 -58.5t57.5 -23.5l193 10v-76q-27 0 -99 -6q-63 -4 -100 -4q-61 0 -105 47.5t-44 110.5z" />
<glyph unicode="&#xaa;" d="M143 287v348q0 127 90.5 217t217.5 90h122q127 0 217.5 -90t90.5 -217v-635l-445 -20q-123 0 -208 92t-85 215zM225 287q0 -90 62.5 -158t152.5 -68h11l348 17v557q0 94 -65.5 159.5t-160.5 65.5h-122q-94 0 -160 -65.5t-66 -159.5v-348z" />
<glyph unicode="&#xab;" horiz-adv-x="888" d="M143 496l340 340l58 -60l-281 -280l281 -283l-58 -57zM389 496l340 340l57 -60l-280 -280l280 -283l-57 -57z" />
<glyph unicode="&#xac;" horiz-adv-x="962" d="M143 471v82h717v-289l-82 -2v209h-635z" />
<glyph unicode="&#xad;" horiz-adv-x="1003" d="M143 451v102h758v-102h-758z" />
<glyph unicode="&#xae;" d="M143 922v184q0 127 90.5 217t217.5 90h122q127 0 217.5 -90t90.5 -217v-184q0 -127 -90.5 -217.5t-217.5 -90.5h-122q-127 0 -217.5 90.5t-90.5 217.5zM225 922q0 -94 65.5 -160t160.5 -66h122q94 0 160 65.5t66 160.5v184q0 94 -65.5 159.5t-160.5 65.5h-122 q-94 0 -160 -65.5t-66 -159.5v-184zM358 774v475q16 0 78 4q49 4 80 4q61 0 106.5 -47t45.5 -110q0 -94 -76 -139l115 -187h-93l-102 168l-76 4v-172h-78zM436 1024q14 0 42 -2t40 -2q70 0 70 80q0 33 -21.5 55.5t-54.5 22.5q-27 0 -76 -4v-150z" />
<glyph unicode="&#xb0;" horiz-adv-x="634" d="M143 1219q0 80 57.5 137t137.5 57t137 -57.5t57 -136.5q0 -80 -57 -137.5t-137 -57.5t-137.5 57.5t-57.5 137.5zM225 1219q0 -45 34 -79t79 -34q47 0 80 34t33 79q0 47 -33 79.5t-80 32.5q-45 0 -79 -32.5t-34 -79.5z" />
<glyph unicode="&#xb1;" horiz-adv-x="1003" d="M154 0v82h737v-82h-737zM154 461v82h327v327h82v-327h328v-82h-328v-307h-82v307h-327z" />
<glyph unicode="&#xb2;" horiz-adv-x="1064" d="M143 0v164q0 182 146 352q123 141 309 236q125 63 174 116q68 76 68 197q0 115 -75 190.5t-192 75.5q4 0 -153 -8l-236 -12v82l236 12q158 8 153 8q150 0 249.5 -99.5t99.5 -248.5q0 -168 -101 -262q-47 -47 -241 -154q-137 -76 -240 -203q-115 -143 -115 -282v-86 l488 -17q168 0 168 205h82v-20q0 -121 -60 -191q-66 -76 -184 -75h-23z" />
<glyph unicode="&#xb3;" horiz-adv-x="1064" d="M143 0v82l410 -21q328 -16 328 328q0 307 -389 307h-164v82h102q389 0 389 287q0 164 -90 223q-76 51 -237 41l-328 -20v82l328 20q410 25 409 -346q0 -252 -205 -322q266 -74 267 -354q0 -207 -107.5 -313.5t-302.5 -95.5z" />
<glyph unicode="&#xb4;" horiz-adv-x="722" d="M369 1106q0 18 16 33l127 110q27 23 47 23q25 0 43.5 -18.5t18.5 -43.5q0 -35 -41 -57l-148 -80q-10 -8 -22 -8q-41 0 -41 41z" />
<glyph unicode="&#xb7;" horiz-adv-x="368" d="M133 819q0 29 21.5 50.5t50.5 21.5t50 -21.5t21 -50.5t-21.5 -50t-49.5 -21q-29 0 -50.5 21t-21.5 50z" />
<glyph unicode="&#x2219;" horiz-adv-x="368" d="M133 819q0 29 21.5 50.5t50.5 21.5t50 -21.5t21 -50.5t-21.5 -50t-49.5 -21q-29 0 -50.5 21t-21.5 50z" />
<glyph unicode="&#xb8;" horiz-adv-x="778" d="M133 1147q0 29 21.5 50.5t50.5 21.5t50 -21.5t21 -50.5t-21.5 -50.5t-49.5 -21.5q-29 0 -50.5 21.5t-21.5 50.5zM543 1147q0 29 21.5 50.5t49.5 21.5q29 0 50.5 -21.5t21.5 -50.5t-21.5 -50.5t-50.5 -21.5t-50 21.5t-21 50.5z" />
<glyph unicode="&#xb9;" horiz-adv-x="737" d="M143 0v82h226v1024q0 92 -39 154q-45 72 -131 71h-15v82h21q119 0 186 -98q59 -86 60 -209v-1024h184v-82h-492z" />
<glyph unicode="&#xba;" d="M143 307v307q0 129 91.5 228.5t216.5 99.5h122q125 0 216.5 -99.5t91.5 -228.5v-307q0 -129 -91.5 -228t-216.5 -99h-122q-125 0 -216.5 99t-91.5 228zM225 307q0 -96 66.5 -171t159.5 -75h122q92 0 159 75t67 171v307q0 96 -66.5 171t-159.5 75h-122q-92 0 -159 -74.5 t-67 -171.5v-307z" />
<glyph unicode="&#xbb;" horiz-adv-x="888" d="M143 213l283 283l-283 280l58 60l340 -340l-340 -340zM389 213l283 283l-283 280l57 60l340 -340l-340 -340z" />
<glyph unicode="&#xbf;" d="M143 287v82q0 133 56 209q41 55 167 137t126 227v123h81v-123q0 -193 -196 -315q-82 -51 -115 -105q-37 -59 -37 -153v-82q0 -94 56.5 -160t148.5 -66h143q94 0 160 66t66 160v61h82v-61q0 -127 -90.5 -217t-217.5 -90h-143q-127 0 -207 90t-80 217zM451 1331 q0 35 24.5 58.5t56.5 23.5q35 0 58.5 -23.5t23.5 -58.5q0 -33 -23.5 -57.5t-58.5 -24.5q-33 0 -57 24.5t-24 57.5z" />
<glyph unicode="&#xc0;" horiz-adv-x="1187" d="M143 0v901q0 225 117 367q129 156 354 145l471 -20v-1393h-81v614h-779v-614h-82zM225 696h779v615l-390 20q-186 10 -290 -117q-98 -117 -99 -313v-205zM446 1632q0 51 58 54q25 0 65 -23l187 -107q25 -14 32 -34q12 -41 -36 -45q-10 -2 -31 6l-203 73q-72 27 -72 76z " />
<glyph unicode="&#xc1;" horiz-adv-x="1187" d="M143 0v901q0 225 117 367q129 156 354 145l471 -20v-1393h-81v614h-779v-614h-82zM225 696h779v615l-390 20q-186 10 -290 -117q-98 -117 -99 -313v-205zM485 1509q0 6 2 13q4 18 33 34l187 107q41 23 65 23q55 -2 55 -52q0 -51 -71 -78l-201 -73q-23 -8 -31 -6 q-39 1 -39 32z" />
<glyph unicode="&#xc2;" horiz-adv-x="1187" d="M143 0v901q0 225 117 367q129 156 354 145l471 -20v-1393h-81v614h-779v-614h-82zM225 696h779v615l-390 20q-186 10 -290 -117q-98 -117 -99 -313v-205zM383 1526l252 207l252 -207l-53 -62l-199 162l-199 -162z" />
<glyph unicode="&#xc3;" horiz-adv-x="1187" d="M143 0v901q0 225 117 367q121 146 327 146q14 0 27 -1l471 -20v-1393h-81v614h-779v-614h-82zM225 696h779v615l-390 20q-14 1 -27 1q-167 0 -263 -118q-98 -117 -99 -313v-205zM909 1546l-62 -55q-55 63 -118 63q-35 0 -94.5 -39.5t-118.5 -39.5q-100 0 -181 90l62 55 q53 -63 119 -64q35 0 94 40t117 40q100 0 182 -90z" />
<glyph unicode="&#xc4;" horiz-adv-x="1187" d="M143 0v901q0 225 117 367q121 146 327 146q14 0 27 -1l471 -20v-1393h-81v614h-779v-614h-82zM225 696h779v615l-390 20q-14 1 -27 1q-167 0 -263 -118q-98 -117 -99 -313v-205zM993 1536q0 -29 -21.5 -50.5t-50.5 -21.5t-50.5 21.5t-21.5 50.5t21.5 50.5t50.5 21.5 t50.5 -21.5t21.5 -50.5zM419 1536q0 -29 -21.5 -50.5t-49.5 -21.5q-29 0 -50.5 21.5t-21.5 50.5t21.5 50.5t50.5 21.5t50 -21.5t21 -50.5z" />
<glyph unicode="&#xc5;" horiz-adv-x="1187" d="M143 0v901q0 225 117 367q129 156 354 145l471 -20v-1393h-81v614h-779v-614h-82zM225 696h779v615l-390 20q-186 10 -290 -117q-98 -117 -99 -313v-205zM512 1577q0 47 34 80t79 33q47 0 79.5 -33t32.5 -80q0 -45 -32.5 -79t-79.5 -34q-45 0 -79 34t-34 79zM573 1577 q0 -51 52 -51q51 0 51 51t-51 51q-52 0 -52 -51z" />
<glyph unicode="&#xc6;" horiz-adv-x="1515" d="M143 0v881q0 227 127 381q139 168 365 151l278 -20h480v-82h-471v-533h368v-82h-368v-614h491v-82h-573v696h-615v-696h-82zM225 778h615v533l-205 20q-184 18 -301 -123q-109 -129 -109 -327v-103z" />
<glyph unicode="&#xc7;" horiz-adv-x="1187" d="M143 492v409q0 219 111 359q121 154 336 153h24l471 -20v-82l-491 20q-180 0 -281 -129q-88 -115 -88 -301v-409q0 -186 88 -302q100 -129 281 -129h20l471 21v-82l-364 -16q0 -4 -96 -195q-27 -55 -70 -55q-47 0 -47 53q0 25 27 59l100 134h-45q-215 0 -336 153 q-111 140 -111 359z" />
<glyph unicode="&#xc8;" horiz-adv-x="1146" d="M143 389q0 133 70 227.5t197 126.5q-100 35 -154 125q-51 84 -51 197q0 373 450 348l369 -20v-82l-369 20q-369 20 -368 -266q0 -287 389 -287h184v-82h-246q-389 0 -389 -307q0 -168 107 -254q98 -82 262 -74l450 21v-82l-450 -20q-199 -8 -322 96q-129 110 -129 313z " />
<glyph unicode="&#xc9;" horiz-adv-x="1146" d="M143 389q0 133 70 227.5t197 126.5q-100 35 -154 125q-51 84 -51 197q0 373 450 348l369 -20v-82l-369 20q-369 20 -368 -266q0 -287 389 -287h184v-82h-246q-389 0 -389 -307q0 -168 107 -254q98 -82 262 -74l450 21v-82l-450 -20q-199 -8 -322 96q-129 110 -129 313z M506 1509q0 6 2 13q4 18 33 34l186 107q41 23 66 23q55 -2 55 -52q0 -51 -72 -78l-201 -73q-23 -8 -30 -6q-39 1 -39 32z" />
<glyph unicode="&#xca;" horiz-adv-x="1146" d="M143 389q0 133 70 227.5t197 126.5q-100 35 -154 125q-51 84 -51 197q0 373 450 348l369 -20v-82l-369 20q-369 20 -368 -266q0 -287 389 -287h184v-82h-246q-389 0 -389 -307q0 -168 107 -254q98 -82 262 -74l450 21v-82l-450 -20q-199 -8 -322 96q-129 110 -129 313z " />
<glyph unicode="&#xcb;" horiz-adv-x="1146" d="M143 389q0 133 70 227.5t197 126.5q-100 35 -154 125q-51 84 -51 197q0 350 396 350q26 0 54 -2l369 -20v-82l-369 20q-25 1 -47 2q-321 0 -321 -268q0 -287 389 -287h184v-82h-246q-389 0 -389 -307q0 -168 107 -254q89 -74 233 -74h29l450 21v-82l-450 -20 q-14 -1 -29 -1q-179 0 -293 97q-129 110 -129 313zM973 1536q0 -29 -21.5 -50.5t-50.5 -21.5t-50.5 21.5t-21.5 50.5t21.5 50.5t50.5 21.5t50.5 -21.5t21.5 -50.5zM399 1536q0 -29 -21.5 -50.5t-49.5 -21.5q-29 0 -50.5 21.5t-21.5 50.5t21.5 50.5t50.5 21.5t50 -21.5 t21 -50.5z" />
<glyph unicode="&#xcc;" horiz-adv-x="327" d="M37 1632q0 51 57 54q25 0 66 -23l186 -107q25 -14 33 -34q12 -41 -37 -45q-10 -2 -31 6l-202 73q-72 27 -72 76zM143 0v1393h82v-1393h-82z" />
<glyph unicode="&#xcd;" horiz-adv-x="327" d="M14 1509q0 6 2 13q4 18 33 34l187 107q41 23 65 23q55 -2 55 -52q0 -51 -71 -78l-201 -73q-23 -8 -31 -6q-39 1 -39 32zM143 0v1393h82v-1393h-82z" />
<glyph unicode="&#xce;" horiz-adv-x="327" d="M143 0v1393h82v-1393h-82z" />
<glyph unicode="&#xcf;" horiz-adv-x="1208" d="M256 1536q0 29 21.5 50.5t50.5 21.5t50 -21.5t21 -50.5t-21.5 -50.5t-49.5 -21.5q-29 0 -50.5 21.5t-21.5 50.5zM573 0v1393h82v-1393h-82zM829 1536q0 29 21.5 50.5t50.5 21.5t50.5 -21.5t21.5 -50.5t-21.5 -50.5t-50.5 -21.5t-50.5 21.5t-21.5 50.5z" />
<glyph unicode="&#xd1;" horiz-adv-x="1187" d="M143 0v1393l471 20q14 1 28 1q206 0 327 -146q117 -141 116 -367v-901h-81v901q0 197 -99 313q-97 118 -263 118q-13 0 -28 -1l-389 -20v-1311h-82zM889 1546l-62 -55q-55 63 -118 63q-35 0 -94.5 -39.5t-118.5 -39.5q-100 0 -181 90l62 55q53 -63 119 -64q35 0 94 40 t117 40q100 0 182 -90z" />
<glyph unicode="&#xd2;" horiz-adv-x="1208" d="M143 492v409q0 227 124 369.5t347 142.5h21q223 0 350 -145q121 -139 121 -367v-409q0 -227 -121 -367q-127 -145 -350 -145h-21q-223 0 -350 145q-121 140 -121 367zM225 492q0 -193 97 -308q104 -123 292 -123h21q188 0 293 123q96 115 96 308v409q0 193 -96 307 q-104 123 -293 123h-21q-188 0 -292 -123q-96 -115 -97 -307v-409zM446 1632q0 51 58 54q25 0 65 -23l187 -107q25 -14 32 -34q12 -41 -36 -45q-10 -2 -31 6l-203 73q-72 27 -72 76z" />
<glyph unicode="&#xd3;" horiz-adv-x="1208" d="M143 492v409q0 227 124 369.5t347 142.5h21q223 0 350 -145q121 -139 121 -367v-409q0 -227 -121 -367q-127 -145 -350 -145h-21q-223 0 -350 145q-121 140 -121 367zM225 492q0 -193 97 -308q104 -123 292 -123h21q188 0 293 123q96 115 96 308v409q0 193 -96 307 q-104 123 -293 123h-21q-188 0 -292 -123q-96 -115 -97 -307v-409zM444 1509q0 6 2 13q4 18 33 34l187 107q41 23 65 23q55 -2 55 -52q0 -51 -71 -78l-201 -73q-23 -8 -31 -6q-39 1 -39 32z" />
<glyph unicode="&#xd4;" horiz-adv-x="1208" d="M143 492v409q0 227 124 369.5t347 142.5h21q223 0 350 -145q121 -139 121 -367v-409q0 -227 -121 -367q-127 -145 -350 -145h-21q-223 0 -350 145q-121 140 -121 367zM225 492q0 -193 97 -308q104 -123 292 -123h21q188 0 293 123q96 115 96 308v409q0 193 -96 307 q-104 123 -293 123h-21q-188 0 -292 -123q-96 -115 -97 -307v-409zM362 1526l252 207l252 -207l-53 -62l-199 162l-198 -162z" />
<glyph unicode="&#xd5;" horiz-adv-x="1208" d="M143 492v409q0 227 124 369.5t347 142.5h21q223 0 350 -145q121 -139 121 -367v-409q0 -227 -121 -367q-127 -145 -350 -145h-21q-223 0 -350 145q-121 140 -121 367zM225 492q0 -193 97 -308q104 -123 292 -123h21q188 0 293 123q96 115 96 308v409q0 193 -96 307 q-104 123 -293 123h-21q-188 0 -292 -123q-96 -115 -97 -307v-409zM909 1546l-62 -55q-55 63 -118 63q-35 0 -94.5 -39.5t-118.5 -39.5q-100 0 -181 90l62 55q53 -63 119 -64q35 0 94 40t117 40q100 0 182 -90z" />
<glyph unicode="&#xd6;" horiz-adv-x="1208" d="M143 492v409q0 227 124 369.5t347 142.5h21q223 0 350 -145q121 -139 121 -367v-409q0 -227 -121 -367q-127 -145 -350 -145h-21q-223 0 -350 145q-121 140 -121 367zM225 492q0 -193 97 -308q104 -123 292 -123h21q188 0 293 123q96 115 96 308v409q0 193 -96 307 q-104 123 -293 123h-21q-188 0 -292 -123q-96 -115 -97 -307v-409zM973 1536q0 -29 -21.5 -50.5t-50.5 -21.5t-50.5 21.5t-21.5 50.5t21.5 50.5t50.5 21.5t50.5 -21.5t21.5 -50.5zM399 1536q0 -29 -21.5 -50.5t-49.5 -21.5q-29 0 -50.5 21.5t-21.5 50.5t21.5 50.5t50.5 21.5 t50 -21.5t21 -50.5z" />
<glyph unicode="&#xd8;" horiz-adv-x="1208" d="M143 492v409q0 227 124 369.5t347 142.5h21q223 0 350 -145q121 -139 121 -367v-409q0 -227 -121 -367q-127 -145 -350 -145h-21q-223 0 -350 145q-121 140 -121 367zM225 492q0 -66 11 -109l753 717q-90 231 -375 231q-188 0 -292 -123q-96 -115 -97 -307v-409zM260 293 q90 -231 375 -232q188 0 293 123q96 115 96 308v409q0 66 -10 109z" />
<glyph unicode="&#xd9;" horiz-adv-x="1187" d="M143 492v901h82v-901q0 -197 99 -314q104 -127 290 -117l390 21v1311h81v-1393l-471 -20q-225 -10 -354 145q-117 142 -117 367z" />
<glyph unicode="&#xda;" horiz-adv-x="1187" d="M143 492v901h82v-901q0 -197 99 -314q104 -127 290 -117l390 21v1311h81v-1393l-471 -20q-225 -10 -354 145q-117 142 -117 367zM465 1509q0 6 2 13q4 18 33 34l186 107q41 23 66 23q55 -2 55 -52q0 -51 -72 -78l-200 -73q-23 -8 -31 -6q-39 1 -39 32z" />
<glyph unicode="&#xdb;" horiz-adv-x="1187" d="M143 492v901h82v-901q0 -197 99 -314q104 -127 290 -117l390 21v1311h81v-1393l-471 -20q-225 -10 -354 145q-117 142 -117 367zM362 1526l252 207l252 -207l-53 -62l-199 162l-198 -162z" />
<glyph unicode="&#xdc;" horiz-adv-x="1187" d="M143 492v901h82v-901q0 -197 99 -314q97 -118 263 -117h27l390 21v1311h81v-1393l-471 -20q-14 -1 -27 -1q-206 0 -327 146q-117 142 -117 367zM973 1536q0 -29 -21.5 -50.5t-50.5 -21.5t-50.5 21.5t-21.5 50.5t21.5 50.5t50.5 21.5t50.5 -21.5t21.5 -50.5zM399 1536 q0 -29 -21.5 -50.5t-49.5 -21.5q-29 0 -50.5 21.5t-21.5 50.5t21.5 50.5t50.5 21.5t50 -21.5t21 -50.5z" />
<glyph unicode="&#xdd;" horiz-adv-x="1126" d="M143 1126v267h82v-267q0 -197 99 -313q104 -127 290 -117l287 17l41 680h82l-41 -758l-328 -19v-616h-82v616q-209 12 -323 160q-107 137 -107 350zM471 1495q0 18 16 33l127 110q27 23 48 23q25 0 43 -18.5t18 -43.5q0 -35 -41 -57l-147 -80q-10 -8 -23 -8q-41 0 -41 41 z" />
<glyph unicode="&#xdf;" horiz-adv-x="1064" d="M143 -184v1290q0 127 90.5 217t217.5 90h102q127 0 217 -90t90 -217v-41q0 -258 -184 -322q129 -35 208 -129t79 -225q0 -184 -89 -293q-94 -119 -274 -119q-39 0 -293 23v82l246 -21q25 -2 41 -2q287 0 287 330q0 307 -410 307h-102v82q199 0 284 43q125 63 125 244v41 q0 94 -65.5 159.5t-159.5 65.5h-102q-94 0 -160 -65.5t-66 -159.5v-1290h-82z" />
<glyph unicode="&#xe0;" d="M143 287v348q0 127 90.5 217t217.5 90h122q127 0 217.5 -90t90.5 -217v-635l-445 -20q-123 0 -208 92t-85 215zM225 287q0 -90 62.5 -158t152.5 -68h11l348 17v557q0 94 -65.5 159.5t-160.5 65.5h-122q-94 0 -160 -65.5t-66 -159.5v-348zM389 1210q0 25 18.5 43.5 t42.5 18.5q23 0 47 -23l125 -110q18 -12 19 -33q0 -41 -41 -41q-14 0 -25 8l-145 80q-41 22 -41 57z" />
<glyph unicode="&#xe1;" d="M143 287v348q0 127 90.5 217t217.5 90h122q127 0 217.5 -90t90.5 -217v-635l-445 -20q-123 0 -208 92t-85 215zM225 287q0 -90 62.5 -158t152.5 -68h11l348 17v557q0 94 -65.5 159.5t-160.5 65.5h-122q-94 0 -160 -65.5t-66 -159.5v-348zM389 1106q0 18 16 33l127 110 q27 23 47 23q25 0 43.5 -18.5t18.5 -43.5q0 -35 -41 -57l-148 -80q-10 -8 -22 -8q-41 0 -41 41z" />
<glyph unicode="&#xe2;" d="M143 287v348q0 127 90.5 217t217.5 90h122q127 0 217.5 -90t90.5 -217v-635l-445 -20q-123 0 -208 92t-85 215zM225 287q0 -90 62.5 -158t152.5 -68h11l348 17v557q0 94 -65.5 159.5t-160.5 65.5h-122q-94 0 -160 -65.5t-66 -159.5v-348zM280 1096l252 207l252 -207 l-53 -62l-199 162l-199 -162z" />
<glyph unicode="&#xe3;" d="M143 287v348q0 127 90.5 217t217.5 90h122q127 0 217.5 -90t90.5 -217v-635l-445 -20q-123 0 -208 92t-85 215zM225 287q0 -90 62.5 -158t152.5 -68h11l348 17v557q0 94 -65.5 159.5t-160.5 65.5h-122q-94 0 -160 -65.5t-66 -159.5v-348zM253 1155l62 55q53 -63 119 -63 q35 0 94 40t117 40q100 0 182 -90l-62 -56q-55 63 -118 64q-35 0 -94.5 -40t-118.5 -40q-101 0 -181 90z" />
<glyph unicode="&#xe4;" d="M143 287v348q0 127 90.5 217t217.5 90h122q127 0 217.5 -90t90.5 -217v-635l-445 -20q-123 0 -208 92t-85 215zM225 287q0 -90 62.5 -158t152.5 -68h11l348 17v557q0 94 -65.5 159.5t-160.5 65.5h-122q-94 0 -160 -65.5t-66 -159.5v-348zM242 1147q0 29 21.5 50.5 t50.5 21.5t50 -21.5t21 -50.5t-21.5 -50.5t-49.5 -21.5q-29 0 -50.5 21.5t-21.5 50.5zM652 1147q0 29 21.5 50.5t49.5 21.5q29 0 50.5 -21.5t21.5 -50.5t-21.5 -50.5t-50.5 -21.5t-50 21.5t-21 50.5z" />
<glyph unicode="&#xe5;" d="M143 287v348q0 127 90.5 217t217.5 90h122q127 0 217.5 -90t90.5 -217v-635l-445 -20q-123 0 -208 92t-85 215zM225 287q0 -90 62.5 -158t152.5 -68h11l348 17v557q0 94 -65.5 159.5t-160.5 65.5h-122q-94 0 -160 -65.5t-66 -159.5v-348zM410 1147q0 47 33.5 80t78.5 33 q47 0 80 -33t33 -80q0 -45 -33 -79t-80 -34q-45 0 -78.5 34t-33.5 79zM471 1147q0 -51 51 -51t51 51t-51 51t-51 -51z" />
<glyph unicode="&#xe6;" horiz-adv-x="1556" d="M143 307v307q0 127 90.5 227.5t217.5 100.5h102q160 0 244 -156q90 156 268 156h82q127 0 217 -90t90 -217v-246h-614v-102q0 -92 66.5 -162t158.5 -64l348 21v-82l-348 -20h-14q-170 0 -254 155q-84 -156 -244 -155h-102q-127 0 -217.5 100t-90.5 227zM225 307 q0 -94 66.5 -170t159.5 -76h102q92 0 152 78q53 72 53 168v307q0 96 -53 168q-59 78 -152 78h-102q-92 0 -159 -75.5t-67 -170.5v-307zM840 471h532v164q0 94 -65.5 159.5t-159.5 65.5h-82q-94 0 -159.5 -65.5t-65.5 -159.5v-164z" />
<glyph unicode="&#xe7;" horiz-adv-x="942" d="M143 287v348q0 121 83 214t204 93h21l389 -20v-82l-404 20q-88 0 -149.5 -67.5t-61.5 -157.5v-348q0 -90 61.5 -158t149.5 -68h15l389 21v-82l-240 -12q0 -2 -98 -199q-27 -55 -70 -55q-47 0 -47 53q0 25 27 59l102 138q-53 -4 -84 -4q-121 0 -204 93t-83 214z" />
<glyph unicode="&#xe8;" d="M143 287v348q0 127 90.5 217t217.5 90h122q127 0 217.5 -90t90.5 -217v-246h-656v-102q0 -90 62.5 -158t152.5 -68h11l389 21v-82l-404 -20q-123 0 -208 92t-85 215zM225 471h574v164q0 94 -65.5 159.5t-160.5 65.5h-122q-94 0 -160 -65.5t-66 -159.5v-164zM369 1210 q0 25 18.5 43.5t42.5 18.5q23 0 47 -23l125 -110q18 -12 19 -33q0 -41 -41 -41q-14 0 -25 8l-145 80q-41 22 -41 57z" />
<glyph unicode="&#xe9;" d="M143 287v348q0 127 90.5 217t217.5 90h122q127 0 217.5 -90t90.5 -217v-246h-656v-102q0 -90 62.5 -158t152.5 -68h11l389 21v-82l-404 -20q-123 0 -208 92t-85 215zM225 471h574v164q0 94 -65.5 159.5t-160.5 65.5h-122q-94 0 -160 -65.5t-66 -159.5v-164zM389 1106 q0 18 17 33l126 110q27 23 48 23q25 0 43 -18.5t18 -43.5q0 -35 -41 -57l-147 -80q-10 -8 -23 -8q-41 0 -41 41z" />
<glyph unicode="&#xea;" d="M143 287v348q0 127 90.5 217t217.5 90h122q127 0 217.5 -90t90.5 -217v-246h-656v-102q0 -90 62.5 -158t152.5 -68h11l389 21v-82l-404 -20q-123 0 -208 92t-85 215zM225 471h574v164q0 94 -65.5 159.5t-160.5 65.5h-122q-94 0 -160 -65.5t-66 -159.5v-164zM280 1096 l252 207l252 -207l-53 -62l-199 162l-199 -162z" />
<glyph unicode="&#xeb;" d="M143 287v348q0 127 90.5 217t217.5 90h122q127 0 217.5 -90t90.5 -217v-246h-656v-102q0 -90 62.5 -158t152.5 -68h11l389 21v-82l-404 -20q-123 0 -208 92t-85 215zM225 471h574v164q0 94 -65.5 159.5t-160.5 65.5h-122q-94 0 -160 -65.5t-66 -159.5v-164zM242 1147 q0 29 21.5 50.5t50.5 21.5t50 -21.5t21 -50.5t-21.5 -50.5t-49.5 -21.5q-29 0 -50.5 21.5t-21.5 50.5zM652 1147q0 29 21.5 50.5t49.5 21.5q29 0 50.5 -21.5t21.5 -50.5t-21.5 -50.5t-50.5 -21.5t-50 21.5t-21 50.5z" />
<glyph unicode="&#xec;" horiz-adv-x="348" d="M61 1210q0 25 18.5 43.5t43.5 18.5q23 0 47 -23l125 -110q18 -12 18 -33q0 -41 -41 -41q-14 0 -24 8l-146 80q-41 22 -41 57zM143 0v922h82v-922h-82z" />
<glyph unicode="&#xed;" horiz-adv-x="348" d="M61 1106q0 18 17 33l127 110q27 23 47 23q25 0 43 -18.5t18 -43.5q0 -35 -41 -57l-147 -80q-10 -8 -23 -8q-41 0 -41 41zM143 0v922h82v-922h-82z" />
<glyph unicode="&#xee;" horiz-adv-x="348" d="M-68 1096l252 207l252 -207l-53 -62l-199 162l-198 -162zM143 0v922h82v-922h-82z" />
<glyph unicode="&#xef;" horiz-adv-x="743" d="M98 1147q0 29 21.5 50.5t50.5 21.5t50.5 -21.5t21.5 -50.5t-21.5 -50.5t-50.5 -21.5t-50.5 21.5t-21.5 50.5zM328 0v922h82v-922h-82zM508 1147q0 29 21.5 50.5t50.5 21.5t50 -21.5t21 -50.5t-21.5 -50.5t-49.5 -21.5q-29 0 -50.5 21.5t-21.5 50.5z" />
<glyph unicode="&#xf1;" d="M143 0v922l451 20q121 0 204 -93t83 -214v-635h-82v635q0 88 -61.5 156.5t-149.5 68.5h-15l-348 -16v-844h-82zM233 1155l62 55q53 -63 119 -63q35 0 94 40t117 40q100 0 182 -90l-62 -56q-55 63 -118 64q-35 0 -94.5 -40t-118.5 -40q-101 0 -181 90z" />
<glyph unicode="&#xf2;" d="M143 307v307q0 129 91.5 228.5t216.5 99.5h122q125 0 216.5 -99.5t91.5 -228.5v-307q0 -129 -91.5 -228t-216.5 -99h-122q-125 0 -216.5 99t-91.5 228zM225 307q0 -96 66.5 -171t159.5 -75h122q92 0 159 75t67 171v307q0 96 -66.5 171t-159.5 75h-122q-92 0 -159 -74.5 t-67 -171.5v-307zM369 1210q0 25 18.5 43.5t42.5 18.5q23 0 47 -23l125 -110q18 -12 19 -33q0 -41 -41 -41q-14 0 -25 8l-145 80q-41 22 -41 57z" />
<glyph unicode="&#xf3;" d="M143 307v307q0 129 91.5 228.5t216.5 99.5h122q125 0 216.5 -99.5t91.5 -228.5v-307q0 -129 -91.5 -228t-216.5 -99h-122q-125 0 -216.5 99t-91.5 228zM225 307q0 -96 66.5 -171t159.5 -75h122q92 0 159 75t67 171v307q0 96 -66.5 171t-159.5 75h-122q-92 0 -159 -74.5 t-67 -171.5v-307zM410 1106q0 18 16 33l127 110q27 23 47 23q25 0 43.5 -18.5t18.5 -43.5q0 -35 -41 -57l-148 -80q-10 -8 -22 -8q-41 0 -41 41z" />
<glyph unicode="&#xf4;" d="M143 307v307q0 129 91.5 228.5t216.5 99.5h122q125 0 216.5 -99.5t91.5 -228.5v-307q0 -129 -91.5 -228t-216.5 -99h-122q-125 0 -216.5 99t-91.5 228zM225 307q0 -96 66.5 -171t159.5 -75h122q92 0 159 75t67 171v307q0 96 -66.5 171t-159.5 75h-122q-92 0 -159 -74.5 t-67 -171.5v-307zM260 1096l252 207l252 -207l-53 -62l-199 162l-199 -162z" />
<glyph unicode="&#xf5;" d="M143 307v307q0 129 91.5 228.5t216.5 99.5h122q125 0 216.5 -99.5t91.5 -228.5v-307q0 -129 -91.5 -228t-216.5 -99h-122q-125 0 -216.5 99t-91.5 228zM225 307q0 -96 66.5 -171t159.5 -75h122q92 0 159 75t67 171v307q0 96 -66.5 171t-159.5 75h-122q-92 0 -159 -74.5 t-67 -171.5v-307zM233 1155l62 55q53 -63 119 -63q35 0 94 40t117 40q100 0 182 -90l-62 -56q-55 63 -118 64q-35 0 -94.5 -40t-118.5 -40q-101 0 -181 90z" />
<glyph unicode="&#xf6;" d="M143 307v307q0 129 91.5 228.5t216.5 99.5h122q125 0 216.5 -99.5t91.5 -228.5v-307q0 -129 -91.5 -228t-216.5 -99h-122q-125 0 -216.5 99t-91.5 228zM225 307q0 -96 66.5 -171t159.5 -75h122q92 0 159 75t67 171v307q0 96 -66.5 171t-159.5 75h-122q-92 0 -159 -74.5 t-67 -171.5v-307zM242 1147q0 29 21.5 50.5t50.5 21.5t50 -21.5t21 -50.5t-21.5 -50.5t-49.5 -21.5q-29 0 -50.5 21.5t-21.5 50.5zM652 1147q0 29 21.5 50.5t49.5 21.5q29 0 50.5 -21.5t21.5 -50.5t-21.5 -50.5t-50.5 -21.5t-50 21.5t-21 50.5z" />
<glyph unicode="&#xf7;" horiz-adv-x="1003" d="M143 451v102h758v-102h-758zM440 205q0 29 21.5 50t50.5 21t50.5 -21.5t21.5 -49.5q0 -29 -21.5 -50.5t-50.5 -21.5t-50.5 21.5t-21.5 50.5zM440 799q0 29 21.5 50t50.5 21t50.5 -21.5t21.5 -49.5q0 -29 -21.5 -50.5t-50.5 -21.5t-50.5 21.5t-21.5 50.5z" />
<glyph unicode="&#xf8;" horiz-adv-x="1019" d="M123 123l70 70q-23 57 -23 114v307q0 127 90 227.5t217 100.5h123q133 0 229 -113l52 52l57 -58l-64 -63q33 -66 33 -146v-307q0 -127 -90 -227t-217 -100h-123q-154 0 -246 137l-51 -51zM252 307q0 -25 6 -49l512 514q-70 88 -170 88h-123q-92 0 -158.5 -75.5 t-66.5 -170.5v-307zM291 176q68 -115 186 -115h123q94 0 159.5 76t65.5 170v307q0 45 -14 82z" />
<glyph unicode="&#xf9;" d="M143 287v635h82v-635q0 -88 61.5 -157t149.5 -69h15l348 17v844h82v-922l-451 -20q-121 0 -204 93t-83 214zM369 1210q0 25 18.5 43.5t42.5 18.5q23 0 47 -23l125 -110q18 -12 19 -33q0 -41 -41 -41q-14 0 -25 8l-145 80q-41 22 -41 57z" />
<glyph unicode="&#xfa;" d="M143 287v635h82v-635q0 -88 61.5 -157t149.5 -69h15l348 17v844h82v-922l-451 -20q-121 0 -204 93t-83 214zM410 1106q0 18 16 33l127 110q27 23 47 23q25 0 43.5 -18.5t18.5 -43.5q0 -35 -41 -57l-148 -80q-10 -8 -22 -8q-41 0 -41 41z" />
<glyph unicode="&#xfb;" d="M143 287v635h82v-635q0 -88 61.5 -157t149.5 -69h15l348 17v844h82v-922l-451 -20q-121 0 -204 93t-83 214zM260 1096l252 207l252 -207l-53 -62l-199 162l-199 -162z" />
<glyph unicode="&#xfc;" d="M143 287v635h82v-635q0 -88 61.5 -157t149.5 -69h15l348 17v844h82v-922l-451 -20q-121 0 -204 93t-83 214zM242 1147q0 29 21.5 50.5t50.5 21.5t50 -21.5t21 -50.5t-21.5 -50.5t-49.5 -21.5q-29 0 -50.5 21.5t-21.5 50.5zM652 1147q0 29 21.5 50.5t49.5 21.5 q29 0 50.5 -21.5t21.5 -50.5t-21.5 -50.5t-50.5 -21.5t-50 21.5t-21 50.5z" />
<glyph unicode="&#xfd;" d="M143 287v635h82v-635q0 -88 61.5 -157t149.5 -69h15l348 17v844h82v-1045q0 -127 -90.5 -217t-217.5 -90h-102q-127 0 -217 80t-90 207v20h82v-20q0 -94 69 -152q63 -53 156 -53h102q94 0 160 65.5t66 159.5v119l-369 -16q-121 0 -204 93t-83 214zM430 1106q0 18 16 33 l127 110q27 23 48 23q25 0 43 -18.5t18 -43.5q0 -35 -41 -57l-147 -80q-10 -8 -23 -8q-41 0 -41 41z" />
<glyph unicode="&#xff;" d="M143 287v635h82v-635q0 -88 61.5 -157t149.5 -69h15l348 17v844h82v-1045q0 -127 -90.5 -217t-217.5 -90h-102q-127 0 -217 80t-90 207v20h82v-20q0 -94 69 -152q63 -53 156 -53h102q94 0 160 65.5t66 159.5v119l-369 -16q-121 0 -204 93t-83 214zM242 1147 q0 29 21.5 50.5t50.5 21.5t50 -21.5t21 -50.5t-21.5 -50.5t-49.5 -21.5q-29 0 -50.5 21.5t-21.5 50.5zM652 1147q0 29 21.5 50.5t49.5 21.5q29 0 50.5 -21.5t21.5 -50.5t-21.5 -50.5t-50.5 -21.5t-50 21.5t-21 50.5z" />
<glyph unicode="&#x141;" horiz-adv-x="909" d="M807 1546l-62 -55q-55 63 -118 63q-35 0 -94.5 -39.5t-118.5 -39.5q-100 0 -181 90l62 55q53 -63 119 -64q35 0 94 40t117 40q100 0 182 -90z" />
<glyph unicode="&#x152;" horiz-adv-x="1454" d="M143 492v409q0 227 124 369.5t347 142.5h21q74 0 143 -18v2q49 -4 74 -4h479v-82h-471v-533h369v-82h-369v-614h492v-82h-492q-33 0 -78 -2q-18 -4 -55 -11t-92 -7h-21q-223 0 -350 145q-121 140 -121 367zM225 492q0 -193 97 -308q104 -123 292 -123h21q82 0 143 23 v1225q-66 23 -164 22q-188 0 -292 -123q-96 -115 -97 -307v-409z" />
<glyph unicode="&#x153;" horiz-adv-x="1474" d="M143 307v307q0 129 91.5 228.5t216.5 99.5h41q170 0 262 -162q86 162 270 162h41q127 0 217 -90t90 -217v-246h-573v-102q0 -90 62.5 -158t152.5 -68h10l307 21v-82l-321 -20q-172 0 -256 159q-96 -160 -262 -159h-41q-125 0 -216.5 99t-91.5 228zM225 307 q0 -96 66.5 -171t159.5 -75h41q92 0 158.5 75t66.5 171v307q0 96 -66.5 171t-158.5 75h-41q-92 0 -159 -74.5t-67 -171.5v-307zM799 471h491v164q0 94 -65.5 159.5t-159.5 65.5h-41q-94 0 -159.5 -65.5t-65.5 -159.5v-164z" />
<glyph unicode="&#x178;" horiz-adv-x="1126" d="M143 1126v267h82v-267q0 -197 99 -313q97 -118 263 -117h27l287 17l41 680h82l-41 -758l-328 -19v-616h-82v616q-209 12 -323 160q-107 137 -107 350zM953 1536q0 -29 -21.5 -50.5t-50.5 -21.5t-50.5 21.5t-21.5 50.5t21.5 50.5t50.5 21.5t50.5 -21.5t21.5 -50.5z M379 1536q0 -29 -21.5 -50.5t-49.5 -21.5q-29 0 -50.5 21.5t-21.5 50.5t21.5 50.5t50.5 21.5t50 -21.5t21 -50.5z" />
<glyph unicode="&#x2c6;" horiz-adv-x="866" d="M260 1096l252 207l252 -207l-53 -62l-199 162l-199 -162z" />
<glyph unicode="&#x2db;" horiz-adv-x="1208" d="M973 1536q0 -29 -21.5 -50.5t-50.5 -21.5t-50.5 21.5t-21.5 50.5t21.5 50.5t50.5 21.5t50.5 -21.5t21.5 -50.5zM399 1536q0 -29 -21.5 -50.5t-49.5 -21.5q-29 0 -50.5 21.5t-21.5 50.5t21.5 50.5t50.5 21.5t50 -21.5t21 -50.5z" />
<glyph unicode="&#x2dc;" horiz-adv-x="909" d="M233 1155l62 55q53 -63 119 -63q35 0 94 40t117 40q100 0 182 -90l-62 -56q-55 63 -118 64q-35 0 -94.5 -40t-118.5 -40q-101 0 -181 90z" />
<glyph unicode="&#x2000;" horiz-adv-x="866" />
<glyph unicode="&#x2001;" horiz-adv-x="1732" />
<glyph unicode="&#x2002;" horiz-adv-x="866" />
<glyph unicode="&#x2003;" horiz-adv-x="1732" />
<glyph unicode="&#x2004;" horiz-adv-x="577" />
<glyph unicode="&#x2005;" horiz-adv-x="432" />
<glyph unicode="&#x2006;" horiz-adv-x="288" />
<glyph unicode="&#x2007;" horiz-adv-x="288" />
<glyph unicode="&#x2008;" horiz-adv-x="215" />
<glyph unicode="&#x2009;" horiz-adv-x="346" />
<glyph unicode="&#x200a;" horiz-adv-x="96" />
<glyph unicode="&#x2010;" horiz-adv-x="1003" d="M143 451v102h758v-102h-758z" />
<glyph unicode="&#x2011;" horiz-adv-x="1003" d="M143 451v102h758v-102h-758z" />
<glyph unicode="&#x2012;" horiz-adv-x="1003" d="M143 451v102h758v-102h-758z" />
<glyph unicode="&#x2013;" horiz-adv-x="1167" d="M143 471v82h922v-82h-922z" />
<glyph unicode="&#x2014;" horiz-adv-x="1372" d="M143 471v82h1127v-82h-1127z" />
<glyph unicode="&#x2018;" horiz-adv-x="368" d="M133 1274q0 25 29 78l27 51q13 25 36 24q43 0 43 -41q0 -8 -4 -18l-18 -37q31 -20 30 -57q0 -31 -21.5 -51.5t-49.5 -20.5q-29 0 -50.5 20.5t-21.5 51.5z" />
<glyph unicode="&#x2019;" horiz-adv-x="368" d="M133 1352q0 29 21.5 50t50.5 21t50 -21.5t21 -49.5q0 -14 -6 -31l-51 -100q-12 -23 -35 -23q-43 0 -43 41q0 8 4 18l19 35q-31 25 -31 60z" />
<glyph unicode="&#x201a;" horiz-adv-x="368" d="M133 61q0 29 21.5 50.5t50.5 21.5t50 -21.5t21 -50.5q0 -14 -6 -30l-51 -101q-12 -23 -35 -22q-43 0 -43 41q0 8 4 18l19 35q-31 24 -31 59z" />
<glyph unicode="&#x201c;" horiz-adv-x="573" d="M133 1274q0 25 29 78l27 51q13 25 36 24q43 0 43 -41q0 -8 -4 -18l-18 -37q31 -20 30 -57q0 -31 -21.5 -51.5t-49.5 -20.5q-29 0 -50.5 20.5t-21.5 51.5zM338 1274q0 25 29 78l27 51q13 25 36 24q43 0 43 -41q0 -8 -4 -18l-18 -37q31 -20 30 -57q0 -31 -21.5 -51.5 t-49.5 -20.5q-29 0 -50.5 20.5t-21.5 51.5z" />
<glyph unicode="&#x201d;" horiz-adv-x="573" d="M133 1352q0 29 21.5 50t50.5 21t50 -21.5t21 -49.5q0 -14 -6 -31l-51 -100q-12 -23 -35 -23q-43 0 -43 41q0 8 4 18l19 35q-31 25 -31 60zM338 1352q0 29 21.5 50t50.5 21t50 -21.5t21 -49.5q0 -14 -6 -31l-51 -100q-12 -23 -35 -23q-43 0 -43 41q0 8 4 18l19 35 q-31 25 -31 60z" />
<glyph unicode="&#x201e;" horiz-adv-x="573" d="M133 61q0 29 21.5 50.5t50.5 21.5t50 -21.5t21 -50.5q0 -14 -6 -30l-51 -101q-12 -23 -35 -22q-43 0 -43 41q0 8 4 18l19 35q-31 24 -31 59zM338 61q0 29 21.5 50.5t50.5 21.5t50 -21.5t21 -50.5q0 -14 -6 -30l-51 -101q-12 -23 -35 -22q-43 0 -43 41q0 8 4 18l19 35 q-31 24 -31 59z" />
<glyph unicode="&#x2022;" horiz-adv-x="2232" d="M244 563q0 115 81 197t195 82q115 0 197 -82t82 -197t-81 -196.5t-196 -81.5t-196.5 81.5t-81.5 196.5z" />
<glyph unicode="&#x2026;" horiz-adv-x="931" d="M113 61q0 29 21.5 50.5t49.5 21.5q29 0 50.5 -21.5t21.5 -50.5t-21.5 -50t-50.5 -21t-50 21t-21 50zM399 61q0 29 21.5 50.5t50.5 21.5t50.5 -21.5t21.5 -50.5t-21.5 -50t-50.5 -21t-50.5 21t-21.5 50zM686 61q0 29 21.5 50.5t50.5 21.5t50 -21.5t21 -50.5t-21.5 -50 t-49.5 -21q-29 0 -50.5 21t-21.5 50z" />
<glyph unicode="&#x202f;" horiz-adv-x="346" />
<glyph unicode="&#x2039;" horiz-adv-x="649" d="M143 496l340 340l58 -60l-281 -280l281 -283l-58 -57z" />
<glyph unicode="&#x203a;" horiz-adv-x="649" d="M143 213l283 283l-283 280l58 60l340 -340l-340 -340z" />
<glyph unicode="&#x205f;" horiz-adv-x="432" />
<glyph unicode="&#x2122;" horiz-adv-x="1699" d="M143 1311v82h512q43 0 140 10q88 10 137 10q135 0 182 -123q72 123 238 123q115 0 180 -79t65 -195v-525h-81v525q0 193 -185 192q-76 0 -122 -57t-46 -135v-258h-82v258q0 72 -43 129t-110 57q33 0 -191 -14v-697h-82v697h-225v-697h-82v697h-205z" />
<glyph unicode="&#xe000;" horiz-adv-x="920" d="M0 920h920v-920h-920v920z" />
<glyph unicode="&#xfb01;" horiz-adv-x="1187" d="M963 1188q0 61 61 61t62 -61q0 -61 -62 -62q-61 1 -61 62zM983 0v922h82v-922h-82zM143 840v82h103v184q0 307 213 307h20l258 -20v-82l-272 20q-137 0 -137 -225v-184h368v-82h-368v-840h-82v840h-103z" />
<glyph unicode="&#xfb02;" horiz-adv-x="1454" d="M983 287v1106h82v-1106q0 -90 62.5 -158t152.5 -68h11l61 5v-82l-61 -4h-15q-123 0 -208 92t-85 215zM143 840v82h103v184q0 307 213 307h20l258 -20v-82l-272 20q-137 0 -137 -225v-184h368v-82h-368v-840h-82v840h-103z" />
<glyph unicode="&#xfb03;" horiz-adv-x="2027" d="M1802 1188q0 61 61 61t62 -61q0 -61 -62 -62q-61 1 -61 62zM1822 0v922h82v-922h-82zM983 840v82h103v184q0 307 213 307h20l258 -20v-82l-272 20q-137 0 -137 -225v-184h368v-82h-368v-840h-82v840h-103zM143 840v82h103v184q0 307 213 307h20l258 -20v-82l-272 20 q-137 0 -137 -225v-184h368v-82h-368v-840h-82v840h-103z" />
<glyph unicode="&#xfb04;" horiz-adv-x="2293" d="M1822 287v1106h82v-1106q0 -90 62.5 -158t152.5 -68h11l61 5v-82l-61 -4h-15q-123 0 -208 92t-85 215zM983 840v82h103v184q0 307 213 307h20l258 -20v-82l-272 20q-137 0 -137 -225v-184h368v-82h-368v-840h-82v840h-103zM143 840v82h103v184q0 307 213 307h20l258 -20 v-82l-272 20q-137 0 -137 -225v-184h368v-82h-368v-840h-82v840h-103z" />
</font>
</defs>
</svg>
